<mxfile>
    <diagram id="cjyASo9v6kz4d3mtUruC" name="Page-1">
        <mxGraphModel dx="1332" dy="1013" grid="1" gridSize="10" guides="1" tooltips="1" connect="1" arrows="1" fold="1" page="1" pageScale="1" pageWidth="850" pageHeight="1100" math="0" shadow="0">
            <root>
                <mxCell id="0"/>
                <mxCell id="1" parent="0"/>
                <mxCell id="3" value="Hospital group" style="points=[[0,0,0],[0.25,0,0],[0.5,0,0],[0.75,0,0],[1,0,0],[1,0.25,0],[1,0.5,0],[1,0.75,0],[1,1,0],[0.75,1,0],[0.5,1,0],[0.25,1,0],[0,1,0],[0,0.75,0],[0,0.5,0],[0,0.25,0]];rounded=1;absoluteArcSize=1;arcSize=2;html=1;strokeColor=none;gradientColor=none;shadow=0;dashed=0;fontSize=12;fontColor=#9E9E9E;align=left;verticalAlign=top;spacing=10;spacingTop=-4;fillColor=#F6F6F6;" vertex="1" parent="1">
                    <mxGeometry x="140" y="70" width="1090" height="490" as="geometry"/>
                </mxCell>
                <mxCell id="4" value="Logical Grouping of Services / Instances" style="points=[[0,0,0],[0.25,0,0],[0.5,0,0],[0.75,0,0],[1,0,0],[1,0.25,0],[1,0.5,0],[1,0.75,0],[1,1,0],[0.75,1,0],[0.5,1,0],[0.25,1,0],[0,1,0],[0,0.75,0],[0,0.5,0],[0,0.25,0]];rounded=1;absoluteArcSize=1;arcSize=2;html=1;strokeColor=none;gradientColor=none;shadow=0;dashed=0;fontSize=12;fontColor=#9E9E9E;align=left;verticalAlign=top;spacing=10;spacingTop=-4;fillColor=#E3F2FD;" vertex="1" parent="3">
                    <mxGeometry width="1050" height="420" relative="1" as="geometry">
                        <mxPoint x="10" y="50" as="offset"/>
                    </mxGeometry>
                </mxCell>
                <mxCell id="5" value="Zone" style="points=[[0,0,0],[0.25,0,0],[0.5,0,0],[0.75,0,0],[1,0,0],[1,0.25,0],[1,0.5,0],[1,0.75,0],[1,1,0],[0.75,1,0],[0.5,1,0],[0.25,1,0],[0,1,0],[0,0.75,0],[0,0.5,0],[0,0.25,0]];rounded=1;absoluteArcSize=1;arcSize=2;html=1;strokeColor=none;gradientColor=none;shadow=0;dashed=0;fontSize=12;fontColor=#9E9E9E;align=left;verticalAlign=top;spacing=10;spacingTop=-4;fillColor=#FFF3E0;" vertex="1" parent="4">
                    <mxGeometry width="1010" height="350" relative="1" as="geometry">
                        <mxPoint x="10" y="50" as="offset"/>
                    </mxGeometry>
                </mxCell>
                <mxCell id="6" value="SubNetwork" style="points=[[0,0,0],[0.25,0,0],[0.5,0,0],[0.75,0,0],[1,0,0],[1,0.25,0],[1,0.5,0],[1,0.75,0],[1,1,0],[0.75,1,0],[0.5,1,0],[0.25,1,0],[0,1,0],[0,0.75,0],[0,0.5,0],[0,0.25,0]];rounded=1;absoluteArcSize=1;arcSize=2;html=1;strokeColor=none;gradientColor=none;shadow=0;dashed=0;fontSize=12;fontColor=#9E9E9E;align=left;verticalAlign=top;spacing=10;spacingTop=-4;fillColor=#EDE7F6;" vertex="1" parent="5">
                    <mxGeometry width="220" height="280" relative="1" as="geometry">
                        <mxPoint x="22" y="50" as="offset"/>
                    </mxGeometry>
                </mxCell>
                <mxCell id="16" value="SubNetwork" style="points=[[0,0,0],[0.25,0,0],[0.5,0,0],[0.75,0,0],[1,0,0],[1,0.25,0],[1,0.5,0],[1,0.75,0],[1,1,0],[0.75,1,0],[0.5,1,0],[0.25,1,0],[0,1,0],[0,0.75,0],[0,0.5,0],[0,0.25,0]];rounded=1;absoluteArcSize=1;arcSize=2;html=1;strokeColor=none;gradientColor=none;shadow=0;dashed=0;fontSize=12;fontColor=#9E9E9E;align=left;verticalAlign=top;spacing=10;spacingTop=-4;fillColor=#EDE7F6;" vertex="1" parent="5">
                    <mxGeometry x="260.1255" y="50" width="719.5745000000001" height="280" as="geometry"/>
                </mxCell>
                <mxCell id="17" value="" style="image;html=1;image=img/lib/clip_art/computers/Fujitsu_Tablet_128x128.png" vertex="1" parent="5">
                    <mxGeometry x="49.088771695594126" y="100" width="95.35714285714288" height="60" as="geometry"/>
                </mxCell>
                <mxCell id="18" value="" style="image;html=1;image=img/lib/clip_art/computers/Database_128x128.png" vertex="1" parent="5">
                    <mxGeometry x="64.9816288384513" y="260" width="79.46428571428572" height="60" as="geometry"/>
                </mxCell>
                <mxCell id="19" value="" style="image;html=1;image=img/lib/clip_art/computers/iMac_128x128.png" vertex="1" parent="5">
                    <mxGeometry x="64.9816288384513" y="180" width="63.57142857142858" height="70" as="geometry"/>
                </mxCell>
                <mxCell id="20" value="" style="image;html=1;image=img/lib/clip_art/computers/Software_128x128.png" vertex="1" parent="5">
                    <mxGeometry x="136.86994659546068" y="162" width="79.46428571428572" height="60" as="geometry"/>
                </mxCell>
                <mxCell id="30" style="edgeStyle=orthogonalEdgeStyle;rounded=0;orthogonalLoop=1;jettySize=auto;html=1;exitX=1;exitY=0.5;exitDx=0;exitDy=0;entryX=0.05;entryY=0.534;entryDx=0;entryDy=0;entryPerimeter=0;" edge="1" parent="5" source="21" target="25">
                    <mxGeometry relative="1" as="geometry"/>
                </mxCell>
                <mxCell id="21" value="" style="strokeColor=#dddddd;shadow=1;strokeWidth=1;rounded=1;absoluteArcSize=1;arcSize=2;" vertex="1" parent="5">
                    <mxGeometry x="244.2309746328438" y="162" width="174.82142857142858" height="60" as="geometry"/>
                </mxCell>
                <mxCell id="22" value="Cloud&#10;Pub/Sub" style="dashed=0;connectable=0;html=1;fillColor=#5184F3;strokeColor=none;shape=mxgraph.gcp2.hexIcon;prIcon=cloud_pubsub;part=1;labelPosition=right;verticalLabelPosition=middle;align=left;verticalAlign=middle;spacingLeft=5;fontColor=#999999;fontSize=12;" vertex="1" parent="21">
                    <mxGeometry y="0.5" width="44" height="39" relative="1" as="geometry">
                        <mxPoint x="5" y="-19.5" as="offset"/>
                    </mxGeometry>
                </mxCell>
                <mxCell id="23" value="" style="strokeColor=#dddddd;shadow=1;strokeWidth=1;rounded=1;absoluteArcSize=1;arcSize=2;" vertex="1" parent="5">
                    <mxGeometry x="736.369654560511" y="160" width="135.18987341772154" height="60" as="geometry"/>
                </mxCell>
                <mxCell id="24" value="BigQuery" style="dashed=0;connectable=0;html=1;fillColor=#5184F3;strokeColor=none;shape=mxgraph.gcp2.hexIcon;prIcon=bigquery;part=1;labelPosition=right;verticalLabelPosition=middle;align=left;verticalAlign=middle;spacingLeft=5;fontColor=#999999;fontSize=12;" vertex="1" parent="23">
                    <mxGeometry y="0.5" width="44" height="39" relative="1" as="geometry">
                        <mxPoint x="5" y="-19.5" as="offset"/>
                    </mxGeometry>
                </mxCell>
                <mxCell id="31" style="edgeStyle=orthogonalEdgeStyle;rounded=0;orthogonalLoop=1;jettySize=auto;html=1;exitX=1;exitY=0.5;exitDx=0;exitDy=0;entryX=0;entryY=0.5;entryDx=0;entryDy=0;" edge="1" parent="5" source="25" target="23">
                    <mxGeometry relative="1" as="geometry"/>
                </mxCell>
                <mxCell id="25" value="" style="shape=mxgraph.gcp2.doubleRect;strokeColor=#dddddd;shadow=1;strokeWidth=1;" vertex="1" parent="5">
                    <mxGeometry x="494.2473524192594" y="156" width="178" height="68" as="geometry"/>
                </mxCell>
                <mxCell id="26" value="&lt;font color=&quot;#000000&quot;&gt;Patient&lt;br&gt;&lt;/font&gt;Cloud Dataflow" style="dashed=0;connectable=0;html=1;fillColor=#5184F3;strokeColor=none;shape=mxgraph.gcp2.hexIcon;prIcon=cloud_dataflow;part=1;labelPosition=right;verticalLabelPosition=middle;align=left;verticalAlign=middle;spacingLeft=5;fontColor=#999999;fontSize=12;" vertex="1" parent="25">
                    <mxGeometry y="0.5" width="44" height="39" relative="1" as="geometry">
                        <mxPoint x="5" y="-19.5" as="offset"/>
                    </mxGeometry>
                </mxCell>
            </root>
        </mxGraphModel>
    </diagram>
</mxfile>